# xmcd
#
# Track frame offsets:
#	150
#	14353
#	28817
#	43968
#	59516
#	74814
#	90092
#	103353
#	119926
#	136198
#
# Disc length: 2066 seconds
#
# Revision: 2
# Processed by: cddbd v1.5.2PL0 Copyright (c) Steve Scherf et al.
# Submitted via: dBpowerAMP V4.0
#
DISCID=9908100a
DTITLE=Randy Travis - Randy Travis Collection Disk #3
DYEAR=2008
DGENRE=Country
TTITLE0=Whisper My Names
TTITLE1=Look Heart, No Hands
TTITLE2=Before You Kill Us All
TTITLE3=This Is Me
TTITLE4=Three Wooden Crosses
TTITLE5=The Box
TTITLE6=An Old Pair of Shoes
TTITLE7=A Few Old Country Boys
TTITLE8=I'd Surrender All
TTITLE9=Baptism
EXTD=My name is Dr. Mack Foxx
EXTT0=
EXTT1=
EXTT2=
EXTT3=
EXTT4=
EXTT5=
EXTT6=
EXTT7=
EXTT8=
EXTT9=
PLAYORDER=
